<svg xmlns="http://www.w3.org/2000/svg"  viewBox="0 0 64 64" width="96px" height="96px"><path d="M 32 11 C 22.636 11 18.828125 19.104922 18.828125 27.169922 C 18.828125 27.649922 18.851516 28.577813 18.853516 28.632812 C 18.872516 28.638812 24.508516 30.414844 31.978516 30.464844 L 31.978516 30.466797 L 32.023438 30.466797 C 39.505438 30.415797 45.146484 28.634766 45.146484 28.634766 C 45.148484 28.578766 45.171875 27.650875 45.171875 27.171875 C 45.171875 19.105875 41.364 11 32 11 z M 28.419922 16.25 C 29.688922 16.194 30.773797 17.640469 30.841797 19.480469 C 30.911797 21.321469 29.936969 22.859016 28.667969 22.916016 C 27.397969 22.974016 26.312141 21.5265 26.244141 19.6875 C 26.176141 17.8465 27.149922 16.307 28.419922 16.25 z M 35.580078 16.25 C 36.851078 16.308 37.824906 17.8465 37.753906 19.6875 C 37.685906 21.5265 36.600078 22.974016 35.330078 22.916016 C 34.061078 22.859016 33.088203 21.321469 33.158203 19.480469 C 33.227203 17.640469 34.311078 16.193 35.580078 16.25 z M 29.128906 18.525391 C 28.581906 18.595391 28.182234 19.24175 28.240234 19.96875 C 28.299234 20.69575 28.792797 21.22725 29.341797 21.15625 C 29.889797 21.08525 30.288469 20.441844 30.230469 19.714844 C 30.172469 18.987844 29.678906 18.454391 29.128906 18.525391 z M 35.623047 19.001953 C 34.414604 18.949289 33.81675 19.781156 33.71875 19.957031 C 33.64875 20.083031 33.698359 20.264516 33.818359 20.353516 C 33.936359 20.442516 34.060859 20.416797 34.130859 20.341797 C 35.146859 19.245797 36.248891 19.980484 36.337891 20.021484 C 36.474891 20.086484 36.72375 20.096578 36.84375 19.767578 C 36.90375 19.602578 36.888125 19.478578 36.828125 19.392578 C 36.787125 19.333578 36.595687 19.183031 36.179688 19.082031 C 35.981813 19.033906 35.795682 19.009477 35.623047 19.001953 z M 31.978516 23.923828 L 32.023438 23.923828 C 36.255438 23.923828 39.673672 24.761672 40.013672 25.513672 C 40.028672 25.546672 40.037109 25.583094 40.037109 25.621094 C 40.037109 25.675094 40.019234 25.724625 39.990234 25.765625 C 39.704234 26.182625 35.909438 28.242188 32.023438 28.242188 L 31.978516 28.242188 C 28.091516 28.242188 24.295766 26.182625 24.009766 25.765625 C 23.981766 25.723625 23.962891 25.675094 23.962891 25.621094 C 23.962891 25.583094 23.971328 25.546672 23.986328 25.513672 C 24.325328 24.761672 27.744516 23.924828 31.978516 23.923828 z M 16.964844 33.351562 C 16.447844 34.700562 15.935547 36.105547 15.560547 37.310547 C 13.774547 43.057547 14.354922 45.436234 14.794922 45.490234 C 15.740922 45.605234 18.474609 41.164062 18.474609 41.164062 C 18.474609 43.736583 19.804301 47.090359 22.671875 49.513672 C 21.597431 49.843907 20.28128 50.349887 19.433594 50.976562 C 18.675594 51.536563 18.76925 52.107891 18.90625 52.337891 C 19.50625 53.349891 29.202953 52.982969 32.001953 52.667969 C 34.800953 52.983969 44.495703 53.350891 45.095703 52.337891 C 45.232703 52.107891 45.326359 51.536563 44.568359 50.976562 C 43.719716 50.349887 42.404445 49.843907 41.330078 49.513672 C 44.196946 47.090331 45.527344 43.736279 45.527344 41.164062 C 45.527344 41.164062 48.262031 45.604234 49.207031 45.490234 C 49.647031 45.437234 50.225453 43.057547 48.439453 37.310547 C 48.064453 36.105547 47.554109 34.700562 47.037109 33.351562 C 42.310109 34.776562 36.452438 35.693625 32.023438 35.640625 L 31.978516 35.640625 C 31.201516 35.649625 30.368578 35.620266 29.517578 35.572266 L 29.517578 41.224609 C 26.611578 41.629609 23.710938 41.044922 23.710938 41.044922 L 23.710938 34.902344 C 21.387937 34.509344 19.064844 33.984563 16.964844 33.351562 z"/></svg>